HIERARCHY
ROOT Hips
{
  OFFSET 368.823 89.7904 194.012
  CHANNELS 6 Xposition Yposition Zposition Zrotation Xrotation Yrotation
  JOINT RightUpLeg
  {
    OFFSET -9.24697 -1.53924 -0.0496539
    CHANNELS 6 Xposition Yposition Zposition Zrotation Xrotation Yrotation
    JOINT RightLeg
    {
      OFFSET 0.0283878 -41.8802 0.059512
      CHANNELS 6 Xposition Yposition Zposition Zrotation Xrotation Yrotation
      JOINT RightFoot
      {
        OFFSET -0.153961 -42.4941 -0.471941
        CHANNELS 6 Xposition Yposition Zposition Zrotation Xrotation Yrotation
        End Site
        {
          OFFSET 0 -7.69 17.5
        }
      }
    }
  }
  JOINT LeftUpLeg
  {
    OFFSET 9.30116 -1.65799 0.0114032
    CHANNELS 6 Xposition Yposition Zposition Zrotation Xrotation Yrotation
    JOINT LeftLeg
    {
      OFFSET 0.0687528 -41.8419 -0.134689
      CHANNELS 6 Xposition Yposition Zposition Zrotation Xrotation Yrotation
      JOINT LeftFoot
      {
        OFFSET 0.405511 -41.1613 0.400562
        CHANNELS 6 Xposition Yposition Zposition Zrotation Xrotation Yrotation
        End Site
        {
          OFFSET 0 -7.69 17.5
        }
      }
    }
  }
  JOINT Spine
  {
    OFFSET 0.0091145 14.298 0.0603898
    CHANNELS 6 Xposition Yposition Zposition Zrotation Xrotation Yrotation
    JOINT Spine1
    {
      OFFSET 0.0250381 9.72798 0.0263342
      CHANNELS 6 Xposition Yposition Zposition Zrotation Xrotation Yrotation
      JOINT Spine2
      {
        OFFSET 0.0413849 10.1204 0.00142431
        CHANNELS 6 Xposition Yposition Zposition Zrotation Xrotation Yrotation
        JOINT Spine3
        {
          OFFSET 0.0354071 9.71597 0.00651291
          CHANNELS 6 Xposition Yposition Zposition Zrotation Xrotation Yrotation
          JOINT Neck
          {
            OFFSET 0.0870676 10.384 0.0467615
            CHANNELS 6 Xposition Yposition Zposition Zrotation Xrotation Yrotation
            JOINT Head
            {
              OFFSET 0.0745361 9.47268 0.0242942
              CHANNELS 6 Xposition Yposition Zposition Zrotation Xrotation Yrotation
              End Site
              {
                OFFSET 0 15.95 0
              }
            }
          }
          JOINT RightShoulder
          {
            OFFSET -3.16517 6.93033 0.0283062
            CHANNELS 6 Xposition Yposition Zposition Zrotation Xrotation Yrotation
            JOINT RightArm
            {
              OFFSET -12.7589 0.0216905 0.0632467
              CHANNELS 6 Xposition Yposition Zposition Zrotation Xrotation Yrotation
              JOINT RightForeArm
              {
                OFFSET -26.5059 -0.0491731 0.0567862
                CHANNELS 6 Xposition Yposition Zposition Zrotation Xrotation Yrotation
                JOINT RightHand
                {
                  OFFSET -25.9833 -0.0526551 -0.00138994
                  CHANNELS 6 Xposition Yposition Zposition Zrotation Xrotation Yrotation
                  JOINT RightHandThumb1
                  {
                    OFFSET -2.48905 0.190105 3.12053
                    CHANNELS 6 Xposition Yposition Zposition Zrotation Xrotation Yrotation
                    JOINT RightHandThumb2
                    {
                      OFFSET -3.68274 0 0
                      CHANNELS 6 Xposition Yposition Zposition Zrotation Xrotation Yrotation
                      JOINT RightHandThumb3
                      {
                        OFFSET -2.55832 0 0
                        CHANNELS 6 Xposition Yposition Zposition Zrotation Xrotation Yrotation
                        End Site
                        {
                          OFFSET -2.194 0 0
                        }
                      }
                    }
                  }
                  JOINT RightInHandIndex
                  {
                    OFFSET -3.22368 0.508421 1.97842
                    CHANNELS 6 Xposition Yposition Zposition Zrotation Xrotation Yrotation
                    JOINT RightHandIndex1
                    {
                      OFFSET -5.21684 -0.091368 0.999158
                      CHANNELS 6 Xposition Yposition Zposition Zrotation Xrotation Yrotation
                      JOINT RightHandIndex2
                      {
                        OFFSET -3.61937 0 0
                        CHANNELS 6 Xposition Yposition Zposition Zrotation Xrotation Yrotation
                        JOINT RightHandIndex3
                        {
                          OFFSET -2.0521 0 0
                          CHANNELS 6 Xposition Yposition Zposition Zrotation Xrotation Yrotation
                          End Site
                          {
                            OFFSET -1.805 0 0
                          }
                        }
                      }
                    }
                  }
                  JOINT RightInHandMiddle
                  {
                    OFFSET -3.38211 0.517263 0.756737
                    CHANNELS 6 Xposition Yposition Zposition Zrotation Xrotation Yrotation
                    JOINT RightHandMiddle1
                    {
                      OFFSET -5.17411 -0.084 0.313895
                      CHANNELS 6 Xposition Yposition Zposition Zrotation Xrotation Yrotation
                      JOINT RightHandMiddle2
                      {
                        OFFSET -3.94947 0 0
                        CHANNELS 6 Xposition Yposition Zposition Zrotation Xrotation Yrotation
                        JOINT RightHandMiddle3
                        {
                          OFFSET -2.47579 0 0
                          CHANNELS 6 Xposition Yposition Zposition Zrotation Xrotation Yrotation
                          End Site
                          {
                            OFFSET -1.975 0 0
                          }
                        }
                      }
                    }
                  }
                  JOINT RightInHandRing
                  {
                    OFFSET -3.36516 0.537895 -0.128947
                    CHANNELS 6 Xposition Yposition Zposition Zrotation Xrotation Yrotation
                    JOINT RightHandRing1
                    {
                      OFFSET -4.63474 -0.022105 -0.478947
                      CHANNELS 6 Xposition Yposition Zposition Zrotation Xrotation Yrotation
                      JOINT RightHandRing2
                      {
                        OFFSET -3.44238 0 0
                        CHANNELS 6 Xposition Yposition Zposition Zrotation Xrotation Yrotation
                        JOINT RightHandRing3
                        {
                          OFFSET -2.3881 0 0
                          CHANNELS 6 Xposition Yposition Zposition Zrotation Xrotation Yrotation
                          End Site
                          {
                            OFFSET -1.857 0 0
                          }
                        }
                      }
                    }
                  }
                  JOINT RightInHandPinky
                  {
                    OFFSET -3.16105 0.469368 -1.20179
                    CHANNELS 6 Xposition Yposition Zposition Zrotation Xrotation Yrotation
                    JOINT RightHandPinky1
                    {
                      OFFSET -4.14105 -0.022105 -1.09053
                      CHANNELS 6 Xposition Yposition Zposition Zrotation Xrotation Yrotation
                      JOINT RightHandPinky2
                      {
                        OFFSET -2.75653 0 0
                        CHANNELS 6 Xposition Yposition Zposition Zrotation Xrotation Yrotation
                        JOINT RightHandPinky3
                        {
                          OFFSET -1.74189 0 0
                          CHANNELS 6 Xposition Yposition Zposition Zrotation Xrotation Yrotation
                          End Site
                          {
                            OFFSET -1.645 0 0
                          }
                        }
                      }
                    }
                  }
                }
              }
            }
          }
          JOINT LeftShoulder
          {
            OFFSET 3.24114 6.91832 -0.026884
            CHANNELS 6 Xposition Yposition Zposition Zrotation Xrotation Yrotation
            JOINT LeftArm
            {
              OFFSET 12.8361 -0.0279601 -0.0585021
              CHANNELS 6 Xposition Yposition Zposition Zrotation Xrotation Yrotation
              JOINT LeftForeArm
              {
                OFFSET 26.5 -0.0576259 -0.0651161
                CHANNELS 6 Xposition Yposition Zposition Zrotation Xrotation Yrotation
                JOINT LeftHand
                {
                  OFFSET 25.9904 -0.0384179 -0.0536179
                  CHANNELS 6 Xposition Yposition Zposition Zrotation Xrotation Yrotation
                  JOINT LeftHandThumb1
                  {
                    OFFSET 2.48905 0.190105 3.12053
                    CHANNELS 6 Xposition Yposition Zposition Zrotation Xrotation Yrotation
                    JOINT LeftHandThumb2
                    {
                      OFFSET 3.68274 0 0
                      CHANNELS 6 Xposition Yposition Zposition Zrotation Xrotation Yrotation
                      JOINT LeftHandThumb3
                      {
                        OFFSET 2.55832 0 0
                        CHANNELS 6 Xposition Yposition Zposition Zrotation Xrotation Yrotation
                        End Site
                        {
                          OFFSET 2.194 0 0
                        }
                      }
                    }
                  }
                  JOINT LeftInHandIndex
                  {
                    OFFSET 3.22368 0.508421 1.97842
                    CHANNELS 6 Xposition Yposition Zposition Zrotation Xrotation Yrotation
                    JOINT LeftHandIndex1
                    {
                      OFFSET 5.21684 -0.091368 0.999158
                      CHANNELS 6 Xposition Yposition Zposition Zrotation Xrotation Yrotation
                      JOINT LeftHandIndex2
                      {
                        OFFSET 3.61937 0 0
                        CHANNELS 6 Xposition Yposition Zposition Zrotation Xrotation Yrotation
                        JOINT LeftHandIndex3
                        {
                          OFFSET 2.0521 0 0
                          CHANNELS 6 Xposition Yposition Zposition Zrotation Xrotation Yrotation
                          End Site
                          {
                            OFFSET 1.805 0 0
                          }
                        }
                      }
                    }
                  }
                  JOINT LeftInHandMiddle
                  {
                    OFFSET 3.38211 0.517263 0.756737
                    CHANNELS 6 Xposition Yposition Zposition Zrotation Xrotation Yrotation
                    JOINT LeftHandMiddle1
                    {
                      OFFSET 5.17411 -0.084 0.313895
                      CHANNELS 6 Xposition Yposition Zposition Zrotation Xrotation Yrotation
                      JOINT LeftHandMiddle2
                      {
                        OFFSET 3.94947 0 0
                        CHANNELS 6 Xposition Yposition Zposition Zrotation Xrotation Yrotation
                        JOINT LeftHandMiddle3
                        {
                          OFFSET 2.47579 0 0
                          CHANNELS 6 Xposition Yposition Zposition Zrotation Xrotation Yrotation
                          End Site
                          {
                            OFFSET 1.975 0 0
                          }
                        }
                      }
                    }
                  }
                  JOINT LeftInHandRing
                  {
                    OFFSET 3.36516 0.537895 -0.128947
                    CHANNELS 6 Xposition Yposition Zposition Zrotation Xrotation Yrotation
                    JOINT LeftHandRing1
                    {
                      OFFSET 4.63474 -0.022105 -0.478947
                      CHANNELS 6 Xposition Yposition Zposition Zrotation Xrotation Yrotation
                      JOINT LeftHandRing2
                      {
                        OFFSET 3.44238 0 0
                        CHANNELS 6 Xposition Yposition Zposition Zrotation Xrotation Yrotation
                        JOINT LeftHandRing3
                        {
                          OFFSET 2.3881 0 0
                          CHANNELS 6 Xposition Yposition Zposition Zrotation Xrotation Yrotation
                          End Site
                          {
                            OFFSET 1.857 0 0
                          }
                        }
                      }
                    }
                  }
                  JOINT LeftInHandPinky
                  {
                    OFFSET 3.16105 0.469368 -1.20179
                    CHANNELS 6 Xposition Yposition Zposition Zrotation Xrotation Yrotation
                    JOINT LeftHandPinky1
                    {
                      OFFSET 4.14105 -0.022105 -1.09053
                      CHANNELS 6 Xposition Yposition Zposition Zrotation Xrotation Yrotation
                      JOINT LeftHandPinky2
                      {
                        OFFSET 2.75653 0 0
                        CHANNELS 6 Xposition Yposition Zposition Zrotation Xrotation Yrotation
                        JOINT LeftHandPinky3
                        {
                          OFFSET 1.74189 0 0
                          CHANNELS 6 Xposition Yposition Zposition Zrotation Xrotation Yrotation
                          End Site
                          {
                            OFFSET 1.645 0 0
                          }
                        }
                      }
                    }
                  }
                }
              }
            }
          }
        }
      }
    }
  }
}
MOTION
Frames:	3
Frame Time:	0.00833333
361.38 88.4343 193.288 24.2065 0.108473 -130.653 -9.32951 -1.57661 -0.0101791 35.2456 -36.8997 34.5108 -0.0521371 -41.8727 0.0744369 -9.52303 18.6796 0.667979 0.768593 -42.3647 0.592413 6.42485 5.86178 49.8872 9.23568 -1.59188 0.0422759 32.172 -19.3097 22.6255 0.0568154 -41.9185 -0.0226092 -25.8511 42.2949 30.6446 1.14222 -41.9568 -0.75069 0.331225 -26.1442 5.08318 0.0415746 14.3067 -0.0168402 -6.18921 -3.80435 -12.3729 0.0122648 9.71278 -0.0126829 -1.47284 -1.21135 -2.99244 -0.0327356 10.1199 -0.025834 -2.46025 -2.07332 -4.85332 -0.0255366 9.7157 -0.0197774 -0.572034 -0.292581 2.69186 -0.0428372 10.3866 0.0671814 -0.618049 -4.95044 37.474 -0.0687769 9.45419 0.0400208 -9.3793 7.51394 27.6764 -3.21295 6.9186 0.0165455 2.9781 0.239492 3.15361 -12.7884 -0.00428795 0.0496103 26.2127 -64.7374 -4.5944 -26.449 -0.0554269 -0.0347996 13.8807 -11.2599 121.922 -25.9926 -0.0476117 0.0760112 3.21085 -33.0297 11.3883 -2.48905 0.190105 3.12053 28.184 10.7294 19.1592 -3.68274 5.68434e-14 0 -7.51323e-15 3.18055e-15 -10 -2.55832 0 1.42109e-14 1.05399e-15 -3.18055e-15 -10 -3.22368 0.508421 1.97842 -2.78299e-15 1.59028e-15 4.77083e-15 -5.21684 -0.091368 0.999158 19.9818 0.871897 2.3964 -3.61937 0 0 24 3.18055e-15 -1.59028e-15 -2.0521 -5.68434e-14 2.84217e-14 20 0 -2.38542e-15 -3.38211 0.517263 0.756737 -2.78299e-15 1.59028e-15 4.77083e-15 -5.17411 -0.084 0.313895 20 3.18055e-15 -1.59028e-15 -3.94947 0 0 24 -1.59028e-15 -7.95139e-16 -2.47579 5.68434e-14 2.84217e-14 20 -3.18055e-15 -1.39149e-15 -3.36516 0.537895 -0.128947 -2.78299e-15 1.59028e-15 4.77083e-15 -4.63474 -0.022105 -0.478947 19.9748 -1.02565 -2.81938 -3.44238 5.68434e-14 0 24 0 -7.95139e-16 -2.3881 -5.68434e-14 0 20 1.59028e-15 -5.59082e-16 -3.16105 0.469368 -1.20179 -2.78299e-15 1.59028e-15 4.77083e-15 -4.14105 -0.022105 -1.09053 19.7815 -3.00948 -8.30515 -2.75653 -5.68434e-14 0 24 0 -6.95746e-16 -1.74189 0 0 20 0 -3.97569e-16 3.18779 6.93621 -0.0430263 1.64344 -19.8348 -49.7413 12.7317 0.059456 -0.0372774 -5.94704 24.2764 -118.547 26.493 0.00194444 0.108692 35.9273 -16.1457 -35.7691 25.9741 -0.0314084 -0.0638886 -30.6423 -9.93396 -16.4515 2.48905 0.190105 3.12053 -28.184 10.7294 -19.1592 3.68274 0 -2.84217e-14 2.46587e-16 3.18055e-15 10 2.55832 0 2.84217e-14 2.62407e-15 0 10 3.22368 0.508421 1.97842 3.18055e-15 7.95139e-16 1.59028e-15 5.21684 -0.091368 0.999158 -19.9818 0.871897 -2.3964 3.61937 -2.84217e-14 -1.42109e-14 -24 0 -0 2.0521 0 -1.42109e-14 -20 -3.18055e-15 -1.98785e-16 3.38211 0.517263 0.756737 3.18055e-15 7.95139e-16 1.59028e-15 5.17411 -0.084 0.313895 -20 -1.59028e-15 1.59028e-15 3.94947 2.84217e-14 1.42109e-14 -24 -1.59028e-15 -0 2.47579 0 0 -20 0 -5.96354e-16 3.36516 0.537895 -0.128947 3.18055e-15 7.95139e-16 1.59028e-15 4.63474 -0.022105 -0.478947 -19.9748 -1.02565 2.81938 3.44238 2.84217e-14 2.84217e-14 -24 0 1.59028e-15 2.3881 -5.68434e-14 0 -20 1.59028e-15 7.95139e-16 3.16105 0.469368 -1.20179 3.18055e-15 7.95139e-16 1.59028e-15 4.14105 -0.022105 -1.09053 -19.7815 -3.00948 8.30515 2.75653 0 0 -24 3.97569e-16 -0 1.74189 0 0 -20 3.97569e-16 -3.97569e-16 
361.475 88.4574 193.417 24.1951 0.0950704 -130.672 -9.33237 -1.55265 0.015087 35.2009 -36.9952 34.7009 -0.0658326 -41.8722 0.0748294 -9.44756 18.7559 0.616205 0.804742 -42.4192 0.621387 6.57535 5.83221 49.7409 9.23592 -1.62148 0.00784842 32.192 -19.4838 22.9394 0.0578217 -41.9187 -0.0285079 -25.7361 42.4338 30.4005 1.15839 -41.8977 -0.781319 0.475598 -25.9026 5.22205 0.0960935 14.3066 -0.0184494 -6.23534 -3.7676 -12.1783 0.0270263 9.71282 -0.0130854 -1.48626 -1.20116 -2.94335 -0.0325317 10.1198 -0.0223911 -2.48212 -2.0569 -4.77451 -0.0223728 9.7157 -0.0183867 -0.570646 -0.292091 2.6892 -0.0438877 10.3868 0.0603067 -0.641782 -4.90635 37.2028 -0.0653597 9.45425 0.0355211 -9.38234 7.44451 27.8016 -3.21343 6.91822 0.0175706 3.07825 0.206292 3.16761 -12.7877 -0.00553338 0.0491642 26.9246 -64.4045 -4.11766 -26.4493 -0.056635 -0.0373154 13.9648 -11.3144 121.808 -25.9951 -0.0478617 0.0806357 3.48917 -33.0074 11.5718 -2.48905 0.190105 3.12053 28.184 10.7294 19.1592 -3.68274 5.68434e-14 0 -1.05399e-15 3.18055e-15 -10 -2.55832 5.68434e-14 0 -7.42376e-15 -3.18055e-15 -10 -3.22368 0.508421 1.97842 3.77691e-15 7.95139e-16 3.18055e-15 -5.21684 -0.091368 0.999158 19.9818 0.871897 2.3964 -3.61937 0 2.84217e-14 24 -4.77083e-15 -3.18055e-15 -2.0521 0 -2.84217e-14 20 0 3.97569e-16 -3.38211 0.517263 0.756737 3.77691e-15 7.95139e-16 3.18055e-15 -5.17411 -0.084 0.313895 20 1.59028e-15 1.59028e-15 -3.94947 -5.68434e-14 -2.84217e-14 24 -1.59028e-15 1.59028e-15 -2.47579 0 0 20 0 -1.19271e-15 -3.36516 0.537895 -0.128947 3.77691e-15 7.95139e-16 3.18055e-15 -4.63474 -0.022105 -0.478947 19.9748 -1.02565 -2.81938 -3.44238 -5.68434e-14 -2.84217e-14 24 -1.59028e-15 -7.95139e-16 -2.3881 0 0 20 0 -7.95139e-16 -3.16105 0.469368 -1.20179 3.77691e-15 7.95139e-16 3.18055e-15 -4.14105 -0.022105 -1.09053 19.7815 -3.00948 -8.30515 -2.75653 0 0 24 -1.59028e-15 -1.98785e-16 -1.74189 0 0 20 -7.95139e-16 -3.97569e-16 3.18762 6.93737 -0.0424165 1.76838 -19.7901 -49.6996 12.7327 0.0704047 -0.0383175 -5.95328 24.3441 -118.493 26.4918 0.00181888 0.108315 35.8198 -16.1367 -35.497 25.9745 -0.0304064 -0.0626393 -30.6902 -9.87625 -16.3576 2.48905 0.190105 3.12053 -28.184 10.7294 -19.1592 3.68274 -2.84217e-14 0 -1.61481e-15 0 10 2.55832 -2.84217e-14 0 -2.2651e-15 -3.18055e-15 10 3.22368 0.508421 1.97842 -1.09332e-15 3.97569e-16 1.59028e-15 5.21684 -0.091368 0.999158 -19.9818 0.871897 -2.3964 3.61937 -2.84217e-14 0 -24 -1.59028e-15 -1.59028e-15 2.0521 -5.68434e-14 1.42109e-14 -20 0 -7.95139e-16 3.38211 0.517263 0.756737 -1.09332e-15 3.97569e-16 1.59028e-15 5.17411 -0.084 0.313895 -20 1.59028e-15 1.59028e-15 3.94947 0 0 -24 1.59028e-15 -7.95139e-16 2.47579 -5.68434e-14 1.42109e-14 -20 0 8.94531e-16 3.36516 0.537895 -0.128947 -1.09332e-15 3.97569e-16 1.59028e-15 4.63474 -0.022105 -0.478947 -19.9748 -1.02565 2.81938 3.44238 0 -2.84217e-14 -24 1.59028e-15 -3.97569e-16 2.3881 5.68434e-14 0 -20 -7.95139e-16 9.93923e-17 3.16105 0.469368 -1.20179 -1.09332e-15 3.97569e-16 1.59028e-15 4.14105 -0.022105 -1.09053 -19.7815 -3.00948 8.30515 2.75653 0 -2.84217e-14 -24 -7.95139e-16 -7.95139e-16 1.74189 5.68434e-14 0 -20 -3.97569e-16 3.97569e-16 
361.576 88.4782 193.551 24.3092 0.237209 -130.469 -9.33267 -1.55405 0.0127346 35.1996 -37.2016 34.6787 -0.0683111 -41.8718 0.0755084 -9.39643 18.8022 0.501358 0.861914 -42.4727 0.640934 6.7185 5.83119 49.6435 9.23621 -1.61922 0.00689242 32.3197 -19.783 23.0603 0.0593635 -41.919 -0.0295654 -25.6189 42.6049 30.1886 1.19838 -41.8419 -0.792286 0.618894 -25.7403 5.3141 0.0936563 14.3064 -0.0206212 -6.1808 -3.69104 -12.0889 0.028748 9.71286 -0.0134697 -1.47468 -1.17828 -2.92389 -0.0323225 10.1197 -0.0173678 -2.4627 -2.0187 -4.74496 -0.0189896 9.7157 -0.0163498 -0.56921 -0.291602 2.68638 -0.0451055 10.3869 0.0527769 -0.660774 -4.88571 37.0086 -0.0617643 9.45431 0.0303344 -9.37755 7.3509 27.8848 -3.21389 6.91782 0.0185635 3.16418 0.185539 3.14842 -12.787 -0.00711305 0.0497236 27.7042 -64.1123 -3.61521 -26.4495 -0.0566025 -0.039666 14.074 -11.3181 121.679 -25.9979 -0.070022 0.0463795 3.68603 -32.31 12.0325 -2.48905 0.190105 3.12053 28.184 10.7294 19.1592 -3.68274 0 0 -5.71948e-15 -9.54166e-15 -10 -2.55832 0 -1.42109e-14 -8.23116e-15 -3.18055e-15 -10 -3.22368 0.508421 1.97842 5.36719e-15 -1.59028e-15 1.59028e-15 -5.21684 -0.091368 0.999158 19.9818 0.871897 2.3964 -3.61937 0 0 24 1.59028e-15 -3.18055e-15 -2.0521 0 0 20 3.18055e-15 -1.98785e-15 -3.38211 0.517263 0.756737 5.36719e-15 -1.59028e-15 1.59028e-15 -5.17411 -0.084 0.313895 20 0 -6.36111e-15 -3.94947 0 0 24 -1.59028e-15 -3.18055e-15 -2.47579 0 0 20 -1.59028e-15 -2.38542e-15 -3.36516 0.537895 -0.128947 5.36719e-15 -1.59028e-15 1.59028e-15 -4.63474 -0.022105 -0.478947 19.9748 -1.02565 -2.81938 -3.44238 -5.68434e-14 0 24 1.59028e-15 -3.97569e-15 -2.3881 0 -2.84217e-14 20 1.59028e-15 -1.39149e-15 -3.16105 0.469368 -1.20179 5.36719e-15 -1.59028e-15 1.59028e-15 -4.14105 -0.022105 -1.09053 19.7815 -3.00948 -8.30515 -2.75653 5.68434e-14 0 24 7.95139e-16 -4.47266e-16 -1.74189 5.68434e-14 2.84217e-14 20 0 -0 3.18744 6.9385 -0.0411135 1.91312 -19.7599 -49.6415 12.7347 0.0685295 -0.0392948 -5.99292 24.3802 -118.51 26.4906 0.001695 0.109412 35.6848 -16.0825 -35.1491 25.9749 -0.0294314 -0.0614284 -30.7202 -9.81695 -16.2442 2.48905 0.190105 3.12053 -28.184 10.7294 -19.1592 3.68274 -2.84217e-14 2.84217e-14 -3.79044e-15 3.18055e-15 10 2.55832 0 0 1.00926e-15 0 10 3.22368 0.508421 1.97842 1.68967e-15 -7.95139e-16 -1.59028e-15 5.21684 -0.091368 0.999158 -19.9818 0.871897 -2.3964 3.61937 2.84217e-14 -1.42109e-14 -24 -1.59028e-15 -2.38542e-15 2.0521 0 1.42109e-14 -20 1.59028e-15 -5.96354e-16 3.38211 0.517263 0.756737 1.68967e-15 -7.95139e-16 -1.59028e-15 5.17411 -0.084 0.313895 -20 1.59028e-15 2.38542e-15 3.94947 0 1.42109e-14 -24 1.59028e-15 1.98785e-15 2.47579 0 -1.42109e-14 -20 0 2.98177e-16 3.36516 0.537895 -0.128947 1.68967e-15 -7.95139e-16 -1.59028e-15 4.63474 -0.022105 -0.478947 -19.9748 -1.02565 2.81938 3.44238 0 2.84217e-14 -24 0 1.19271e-15 2.3881 -5.68434e-14 0 -20 7.95139e-16 -9.93923e-17 3.16105 0.469368 -1.20179 1.68967e-15 -7.95139e-16 -1.59028e-15 4.14105 -0.022105 -1.09053 -19.7815 -3.00948 8.30515 2.75653 0 0 -24 -1.19271e-15 -7.95139e-16 1.74189 0 0 -20 4.96962e-17 1.19271e-15 
